<svg width="25" height="25" viewBox="0 0 25 25" fill="none" xmlns="http://www.w3.org/2000/svg">
<rect x="0.5" y="0.5" width="24" height="24" rx="2.5" stroke="black"/>
<rect x="9.74536" y="8.95312" width="2.5" height="11.7358" rx="1" transform="rotate(38.1248 9.74536 8.95312)" fill="black"/>
<rect x="16.0573" y="16.5942" width="2.5" height="9.63305" rx="1" transform="rotate(142.439 16.0573 16.5942)" fill="black"/>
<rect x="14.3274" y="18.1191" width="2.5" height="11.618" rx="1" transform="rotate(-135.473 14.3274 18.1191)" fill="black"/>
<path d="M15.8256 10.4536C15.2734 10.4641 14.8173 10.025 14.8068 9.47284L14.801 9.16903C14.7904 8.61684 15.2295 8.16068 15.7817 8.15016L21.0551 8.04966C21.6073 8.03914 22.0635 8.47824 22.074 9.03043L22.0798 9.33424C22.0903 9.88642 21.6512 10.3426 21.099 10.3531L15.8256 10.4536Z" fill="black"/>
<path d="M22.5129 15.0514C22.5056 15.6036 22.0521 16.0454 21.4998 16.0381L21.2418 16.0347C20.6896 16.0275 20.2478 15.5739 20.255 15.0217L20.3341 9.01225C20.3413 8.46001 20.7949 8.01823 21.3471 8.02549L21.6052 8.02888C22.1574 8.03614 22.5992 8.48971 22.5919 9.04195L22.5129 15.0514Z" fill="black"/>
</svg>
