<svg width="25" height="25" viewBox="0 0 25 25" fill="none" xmlns="http://www.w3.org/2000/svg">
<rect x="1" y="1" width="23" height="23" rx="2" fill="black" stroke="black" stroke-width="2"/>
<rect width="2.45371" height="11.6024" rx="1" transform="matrix(0.777386 0.629024 -0.605678 0.795709 9.5274 8.95312)" fill="white"/>
<rect width="2.45299" height="9.52634" rx="1" transform="matrix(-0.783585 0.621284 -0.597877 -0.801588 15.6492 16.5942)" fill="white"/>
<rect width="2.46205" height="11.4474" rx="1" transform="matrix(-0.702127 -0.712051 0.690273 -0.723549 13.9715 18.1191)" fill="white"/>
<path d="M15.4547 10.453C14.9025 10.4639 14.4466 10.025 14.4364 9.47283L14.4308 9.16904C14.4206 8.61685 14.8599 8.16041 15.4121 8.14956L20.4667 8.05025C21.0188 8.0394 21.4747 8.47825 21.4849 9.03044L21.4906 9.33423C21.5008 9.88642 21.0614 10.3429 20.5092 10.3537L15.4547 10.453Z" fill="white"/>
<path d="M21.9106 15.0514C21.9036 15.6036 21.4502 16.0452 20.898 16.0377L20.7079 16.0351C20.1557 16.0276 19.7137 15.5739 19.7207 15.0217L19.7974 9.01226C19.8044 8.46002 20.2578 8.01841 20.81 8.0259L21.0001 8.02847C21.5524 8.03596 21.9943 8.48971 21.9873 9.04195L21.9106 15.0514Z" fill="white"/>
</svg>
