<svg width="25" height="25" viewBox="0 0 25 25" fill="none" xmlns="http://www.w3.org/2000/svg">
<rect width="25" height="25" rx="3" fill="black"/>
<rect x="9.74536" y="7.93457" width="2.5" height="11.7358" rx="1" transform="rotate(38.1248 9.74536 7.93457)" fill="white"/>
<rect x="16.0573" y="15.5757" width="2.5" height="9.63305" rx="1" transform="rotate(142.439 16.0573 15.5757)" fill="white"/>
<rect x="14.3274" y="17.1001" width="2.5" height="12.0822" rx="1" transform="rotate(-135.473 14.3274 17.1001)" fill="white"/>
<path d="M15.8256 9.43456C15.2734 9.44508 14.8173 9.00598 14.8068 8.45379L14.801 8.14998C14.7904 7.5978 15.2295 7.14164 15.7817 7.13111L21.0551 7.03062C21.6073 7.0201 22.0635 7.4592 22.074 8.01139L22.0798 8.3152C22.0903 8.86738 21.6512 9.32354 21.099 9.33407L15.8256 9.43456Z" fill="white"/>
<path d="M22.5129 14.0323C22.5056 14.5846 22.0521 15.0263 21.4998 15.0191L21.2418 15.0157C20.6896 15.0084 20.2478 14.5549 20.255 14.0026L20.3341 7.99321C20.3413 7.44097 20.7949 6.99918 21.3471 7.00645L21.6052 7.00984C22.1574 7.0171 22.5992 7.47067 22.5919 8.0229L22.5129 14.0323Z" fill="white"/>
</svg>
