<svg width="25" height="25" viewBox="0 0 25 25" fill="none" xmlns="http://www.w3.org/2000/svg">
<path d="M0 7.90388C0 7.16707 0.405118 6.48994 1.05436 6.14156L11.5544 0.507414C12.145 0.190508 12.855 0.190508 13.4456 0.507414L23.9456 6.14156C24.5949 6.48994 25 7.16707 25 7.90388V23C25 24.1046 24.1046 25 23 25H17.625C16.5204 25 15.625 24.1046 15.625 23V17C15.625 15.8954 14.7296 15 13.625 15H12.5H11.375C10.2704 15 9.375 15.8954 9.375 17V23C9.375 24.1046 8.47957 25 7.375 25H2C0.89543 25 0 24.1046 0 23V7.90388Z" fill="black"/>
</svg>
