<svg width="25" height="25" viewBox="0 0 25 25" fill="none" xmlns="http://www.w3.org/2000/svg">
<path d="M24.5 7.90388V23C24.5 23.8284 23.8284 24.5 23 24.5H17.625C16.7966 24.5 16.125 23.8284 16.125 23V17C16.125 15.6193 15.0057 14.5 13.625 14.5H12.5H11.375C9.99429 14.5 8.875 15.6193 8.875 17V23C8.875 23.8284 8.20343 24.5 7.375 24.5H2C1.17157 24.5 0.5 23.8284 0.5 23V7.90388C0.5 7.35127 0.803838 6.84342 1.29077 6.58214L11.7908 0.947994C12.2337 0.710314 12.7663 0.710315 13.2092 0.947994L23.7092 6.58214C24.1962 6.84342 24.5 7.35127 24.5 7.90388Z" stroke="black"/>
</svg>
