<svg width="25" height="25" viewBox="0 0 25 25" fill="none" xmlns="http://www.w3.org/2000/svg">
<path d="M24 7.90388V23C24 23.5523 23.5523 24 23 24H17.625C17.0727 24 16.625 23.5523 16.625 23V17C16.625 15.3431 15.2819 14 13.625 14H12.5H11.375C9.71815 14 8.375 15.3431 8.375 17V23C8.375 23.5523 7.92728 24 7.375 24H2C1.44772 24 1 23.5523 1 23V7.90388C1 7.53548 1.20256 7.19691 1.52718 7.02272L12.0272 1.38857C12.3225 1.23012 12.6775 1.23012 12.9728 1.38857L23.4728 7.02272C23.7974 7.19691 24 7.53548 24 7.90388Z" stroke="black" stroke-width="2"/>
</svg>
