<svg width="132" height="145" viewBox="0 0 132 145" fill="none" xmlns="http://www.w3.org/2000/svg">
<g filter="url(#filter0_i_512_647)">
<ellipse cx="9.61545" cy="16.3092" rx="9.61545" ry="16.3092" transform="matrix(0.826849 0.562423 -0.584734 0.811225 36.1882 98.3662)" fill="#FEFFF7"/>
</g>
<path d="M42.1393 122.131C39.5489 125.725 36.3417 128.363 33.2731 129.736C30.1923 131.114 27.3476 131.183 25.358 129.829C23.3684 128.476 22.4622 125.856 22.7416 122.572C23.0199 119.302 24.4747 115.472 27.0651 111.878C29.6556 108.284 32.8628 105.646 35.9313 104.274C39.0121 102.895 41.8568 102.826 43.8464 104.18C45.836 105.533 46.7422 108.153 46.4628 111.437C46.1845 114.708 44.7298 118.537 42.1393 122.131Z" stroke="black"/>
<g filter="url(#filter1_i_512_647)">
<ellipse cx="9.61457" cy="16.3047" rx="9.61457" ry="16.3047" transform="matrix(0.822787 -0.568349 0.566882 0.823799 78.8242 109.036)" fill="#FEFFF7"/>
</g>
<path d="M103.477 111.823C105.988 115.472 107.375 119.357 107.609 122.673C107.844 126.002 106.917 128.656 104.937 130.023C102.958 131.391 100.152 131.315 97.1301 129.911C94.1201 128.513 90.9891 125.832 88.4784 122.184C85.9678 118.535 84.5805 114.65 84.3467 111.334C84.112 108.005 85.0387 105.351 87.0184 103.984C88.9981 102.616 91.8035 102.692 94.8255 104.096C97.8355 105.494 100.966 108.175 103.477 111.823Z" stroke="black"/>
<g filter="url(#filter2_i_512_647)">
<ellipse cx="51.4353" cy="139.582" rx="5.41304" ry="11.1445" transform="rotate(-90 51.4353 139.582)" fill="#FEFFF7"/>
</g>
<path d="M51.4353 134.669C54.4539 134.669 57.1622 135.264 59.0972 136.204C61.0664 137.161 62.0798 138.386 62.0798 139.582C62.0798 140.778 61.0664 142.003 59.0972 142.96C57.1622 143.9 54.4539 144.495 51.4353 144.495C48.4166 144.495 45.7084 143.9 43.7734 142.96C41.8042 142.003 40.7908 140.778 40.7908 139.582C40.7908 138.386 41.8042 137.161 43.7734 136.204C45.7084 135.264 48.4166 134.669 51.4353 134.669Z" stroke="black"/>
<g filter="url(#filter3_i_512_647)">
<ellipse cx="80.5832" cy="139.582" rx="5.41304" ry="11.1445" transform="rotate(-90 80.5832 139.582)" fill="#FEFFF7"/>
</g>
<path d="M80.5832 134.669C83.6019 134.669 86.3102 135.264 88.2451 136.204C90.2143 137.161 91.2277 138.386 91.2277 139.582C91.2277 140.778 90.2143 142.003 88.2451 142.96C86.3102 143.9 83.6019 144.495 80.5832 144.495C77.5646 144.495 74.8563 143.9 72.9213 142.96C70.9521 142.003 69.9387 140.778 69.9387 139.582C69.9387 138.386 70.9521 137.161 72.9213 136.204C74.8563 135.264 77.5646 134.669 80.5832 134.669Z" stroke="black"/>
<g filter="url(#filter4_i_512_647)">
<path d="M90.8697 119.179C90.8697 135.046 79.5472 137.083 65.5802 137.083C51.6133 137.083 40.2908 135.046 40.2908 119.179C40.2908 103.311 51.6133 90.4478 65.5802 90.4478C79.5472 90.4478 90.8697 103.311 90.8697 119.179Z" fill="#FEFFF7"/>
</g>
<path d="M90.3697 119.179C90.3697 123.088 89.6723 126.105 88.4403 128.437C87.2111 130.763 85.4344 132.438 83.2234 133.642C78.7707 136.067 72.5675 136.583 65.5802 136.583C58.593 136.583 52.3898 136.067 47.9371 133.642C45.7261 132.438 43.9494 130.763 42.7202 128.437C41.4882 126.105 40.7908 123.088 40.7908 119.179C40.7908 103.525 51.9474 90.9478 65.5802 90.9478C79.2131 90.9478 90.3697 103.525 90.3697 119.179Z" stroke="black"/>
<g filter="url(#filter5_i_512_647)">
<path d="M131.162 76.7081C131.162 112.353 101.801 117.514 65.5812 117.514C29.3617 117.514 0 112.353 0 76.7081C0 41.0636 29.3617 12.168 65.5812 12.168C101.801 12.168 131.162 41.0636 131.162 76.7081Z" fill="#FEFFF7"/>
</g>
<path d="M130.662 76.7081C130.662 85.5503 128.842 92.4617 125.581 97.8631C122.321 103.262 117.599 107.189 111.736 110.028C99.982 115.719 83.6924 117.014 65.5812 117.014C47.47 117.014 31.1803 115.719 19.4262 110.028C13.563 107.189 8.84164 103.262 5.58173 97.8631C2.32052 92.4617 0.5 85.5503 0.5 76.7081C0.5 41.3472 29.6303 12.668 65.5812 12.668C101.532 12.668 130.662 41.3472 130.662 76.7081Z" stroke="black"/>
<path d="M51.7861 59.9755C51.7861 64.504 50.859 66.3034 46.3827 66.3034C41.9064 66.3034 40.6416 64.504 40.6416 59.9755C40.6416 55.447 41.9064 52.979 46.3827 52.979C50.859 52.979 51.7861 55.4469 51.7861 59.9755Z" fill="black"/>
<path d="M50.7628 56.8854C50.7628 58.953 50.3385 59.7746 48.2899 59.7746C46.2412 59.7746 45.6624 58.9531 45.6624 56.8854C45.6624 54.8177 46.2412 53.6909 48.2899 53.6909C50.3385 53.6909 50.7628 54.8177 50.7628 56.8854Z" fill="white"/>
<path d="M37.2132 67.9681C37.2132 70.2677 34.322 72.132 28.6405 72.132C22.959 72.132 19.6392 70.2677 19.6392 67.9681C19.6392 65.6684 22.959 63.8042 28.6405 63.8042C34.322 63.8042 37.2132 65.6684 37.2132 67.9681Z" fill="#DEB7AE"/>
<path d="M112.653 67.9681C112.653 70.2677 109.762 72.132 104.08 72.132C98.3988 72.132 95.0789 70.2677 95.0789 67.9681C95.0789 65.6684 98.3988 63.8042 104.08 63.8042C109.762 63.8042 112.653 65.6684 112.653 67.9681Z" fill="#DEB7AE"/>
<path d="M91.2212 59.9755C91.2212 64.504 90.2941 66.3034 85.8178 66.3034C81.3414 66.3034 80.0767 64.504 80.0767 59.9755C80.0767 55.447 81.3414 52.979 85.8178 52.979C90.2941 52.979 91.2212 55.4469 91.2212 59.9755Z" fill="black"/>
<path d="M89.5272 56.8854C89.5272 58.953 89.1029 59.7746 87.0543 59.7746C85.0056 59.7746 84.4268 58.9531 84.4268 56.8854C84.4268 54.8177 85.0056 53.6909 87.0543 53.6909C89.1029 53.6909 89.5272 54.8177 89.5272 56.8854Z" fill="white"/>
<path d="M71.2886 65.3514C71.7843 65.3514 72.1968 65.7597 72.0694 66.2388C71.8354 67.1185 71.2567 67.9343 70.3936 68.5777C69.2457 69.4334 67.6889 69.9141 66.0656 69.9141C64.4424 69.9141 62.8856 69.4334 61.7377 68.5777C60.8746 67.9343 60.2959 67.1185 60.0619 66.2388C59.9345 65.7597 60.347 65.3514 60.8427 65.3514C61.3384 65.3514 61.7277 65.7655 61.9036 66.229C62.103 66.7544 62.48 67.2384 63.0072 67.6314C63.8183 68.2361 64.9185 68.5758 66.0656 68.5758C67.2128 68.5758 68.313 68.2361 69.1241 67.6314C69.6513 67.2384 70.0283 66.7544 70.2277 66.229C70.4036 65.7655 70.7928 65.3514 71.2886 65.3514Z" fill="black"/>
<g filter="url(#filter6_i_512_647)">
<path d="M131.864 25.6824C131.864 37.1291 101.323 36.496 64.9097 36.496C28.4965 36.496 0 37.1291 0 25.6824C0 14.2356 28.4965 0 64.9097 0C101.323 0 131.864 14.2356 131.864 25.6824Z" fill="#CFAF80"/>
<path d="M69.5082 0.450128C69.5082 6.17349 67.6775 10.8134 65.4194 10.8134C63.1612 10.8134 61.3306 6.17369 61.3306 0.450328C61.3306 -0.000440007 61.3306 1.6703e-09 65.4194 1.67048e-09C69.5082 1.67065e-09 69.5082 -0.000199808 69.5082 0.450128Z" fill="#FBE0AB"/>
<path d="M88.4086 2.36317C87.3882 8.0154 84.7532 12.344 82.5231 12.0311C80.2929 11.7183 79.3122 6.88261 80.3326 1.23038C80.4129 0.78521 80.4128 0.785645 84.4508 1.35214C88.4888 1.91864 88.4888 1.91844 88.4086 2.36317Z" fill="#FBE0AB"/>
<path d="M49.7847 1.20452C50.8543 6.84967 49.9159 11.692 47.6885 12.02C45.4612 12.348 42.7885 8.03757 41.7189 2.39242C41.6347 1.94781 41.6348 1.94824 45.6677 1.35439C49.7006 0.760544 49.7006 0.760347 49.7847 1.20452Z" fill="#FBE0AB"/>
</g>
<path d="M129.443 36.5027C129.443 39.8626 101.007 36.5027 65.9306 36.5027C30.8537 36.5027 2.41821 39.8626 2.41821 36.5027C2.41821 33.1427 30.8537 30.4189 65.9306 30.4189C101.007 30.4189 129.443 33.1427 129.443 36.5027Z" fill="#AC936D"/>
<defs>
<filter id="filter0_i_512_647" x="22.186" y="102.708" width="24.8325" height="28.5933" filterUnits="userSpaceOnUse" color-interpolation-filters="sRGB">
<feFlood flood-opacity="0" result="BackgroundImageFix"/>
<feBlend mode="normal" in="SourceGraphic" in2="BackgroundImageFix" result="shape"/>
<feColorMatrix in="SourceAlpha" type="matrix" values="0 0 0 0 0 0 0 0 0 0 0 0 0 0 0 0 0 0 127 0" result="hardAlpha"/>
<feOffset dy="-50"/>
<feGaussianBlur stdDeviation="2"/>
<feComposite in2="hardAlpha" operator="arithmetic" k2="-1" k3="1"/>
<feColorMatrix type="matrix" values="0 0 0 0 0.8 0 0 0 0 0.803922 0 0 0 0 0.764706 0 0 0 0.23 0"/>
<feBlend mode="normal" in2="shape" result="effect1_innerShadow_512_647"/>
</filter>
<filter id="filter1_i_512_647" x="83.8115" y="102.499" width="24.3325" height="29.0093" filterUnits="userSpaceOnUse" color-interpolation-filters="sRGB">
<feFlood flood-opacity="0" result="BackgroundImageFix"/>
<feBlend mode="normal" in="SourceGraphic" in2="BackgroundImageFix" result="shape"/>
<feColorMatrix in="SourceAlpha" type="matrix" values="0 0 0 0 0 0 0 0 0 0 0 0 0 0 0 0 0 0 127 0" result="hardAlpha"/>
<feOffset dy="-50"/>
<feGaussianBlur stdDeviation="2"/>
<feComposite in2="hardAlpha" operator="arithmetic" k2="-1" k3="1"/>
<feColorMatrix type="matrix" values="0 0 0 0 0.8 0 0 0 0 0.803922 0 0 0 0 0.764706 0 0 0 0.23 0"/>
<feBlend mode="normal" in2="shape" result="effect1_innerShadow_512_647"/>
</filter>
<filter id="filter2_i_512_647" x="40.2908" y="134.169" width="22.2891" height="10.8262" filterUnits="userSpaceOnUse" color-interpolation-filters="sRGB">
<feFlood flood-opacity="0" result="BackgroundImageFix"/>
<feBlend mode="normal" in="SourceGraphic" in2="BackgroundImageFix" result="shape"/>
<feColorMatrix in="SourceAlpha" type="matrix" values="0 0 0 0 0 0 0 0 0 0 0 0 0 0 0 0 0 0 127 0" result="hardAlpha"/>
<feOffset dy="-50"/>
<feGaussianBlur stdDeviation="2"/>
<feComposite in2="hardAlpha" operator="arithmetic" k2="-1" k3="1"/>
<feColorMatrix type="matrix" values="0 0 0 0 0.8 0 0 0 0 0.803922 0 0 0 0 0.764706 0 0 0 0.23 0"/>
<feBlend mode="normal" in2="shape" result="effect1_innerShadow_512_647"/>
</filter>
<filter id="filter3_i_512_647" x="69.4387" y="134.169" width="22.2891" height="10.8262" filterUnits="userSpaceOnUse" color-interpolation-filters="sRGB">
<feFlood flood-opacity="0" result="BackgroundImageFix"/>
<feBlend mode="normal" in="SourceGraphic" in2="BackgroundImageFix" result="shape"/>
<feColorMatrix in="SourceAlpha" type="matrix" values="0 0 0 0 0 0 0 0 0 0 0 0 0 0 0 0 0 0 127 0" result="hardAlpha"/>
<feOffset dy="-50"/>
<feGaussianBlur stdDeviation="2"/>
<feComposite in2="hardAlpha" operator="arithmetic" k2="-1" k3="1"/>
<feColorMatrix type="matrix" values="0 0 0 0 0.8 0 0 0 0 0.803922 0 0 0 0 0.764706 0 0 0 0.23 0"/>
<feBlend mode="normal" in2="shape" result="effect1_innerShadow_512_647"/>
</filter>
<filter id="filter4_i_512_647" x="40.2908" y="86.4478" width="50.5789" height="50.6353" filterUnits="userSpaceOnUse" color-interpolation-filters="sRGB">
<feFlood flood-opacity="0" result="BackgroundImageFix"/>
<feBlend mode="normal" in="SourceGraphic" in2="BackgroundImageFix" result="shape"/>
<feColorMatrix in="SourceAlpha" type="matrix" values="0 0 0 0 0 0 0 0 0 0 0 0 0 0 0 0 0 0 127 0" result="hardAlpha"/>
<feOffset dy="-50"/>
<feGaussianBlur stdDeviation="2"/>
<feComposite in2="hardAlpha" operator="arithmetic" k2="-1" k3="1"/>
<feColorMatrix type="matrix" values="0 0 0 0 0.8 0 0 0 0 0.803922 0 0 0 0 0.764706 0 0 0 0.23 0"/>
<feBlend mode="normal" in2="shape" result="effect1_innerShadow_512_647"/>
</filter>
<filter id="filter5_i_512_647" x="0" y="8.16797" width="131.162" height="109.346" filterUnits="userSpaceOnUse" color-interpolation-filters="sRGB">
<feFlood flood-opacity="0" result="BackgroundImageFix"/>
<feBlend mode="normal" in="SourceGraphic" in2="BackgroundImageFix" result="shape"/>
<feColorMatrix in="SourceAlpha" type="matrix" values="0 0 0 0 0 0 0 0 0 0 0 0 0 0 0 0 0 0 127 0" result="hardAlpha"/>
<feOffset dy="-5"/>
<feGaussianBlur stdDeviation="2"/>
<feComposite in2="hardAlpha" operator="arithmetic" k2="-1" k3="1"/>
<feColorMatrix type="matrix" values="0 0 0 0 0.799546 0 0 0 0 0.805436 0 0 0 0 0.764207 0 0 0 0.25 0"/>
<feBlend mode="normal" in2="shape" result="effect1_innerShadow_512_647"/>
</filter>
<filter id="filter6_i_512_647" x="0" y="-4" width="131.864" height="40.5024" filterUnits="userSpaceOnUse" color-interpolation-filters="sRGB">
<feFlood flood-opacity="0" result="BackgroundImageFix"/>
<feBlend mode="normal" in="SourceGraphic" in2="BackgroundImageFix" result="shape"/>
<feColorMatrix in="SourceAlpha" type="matrix" values="0 0 0 0 0 0 0 0 0 0 0 0 0 0 0 0 0 0 127 0" result="hardAlpha"/>
<feOffset dy="-8"/>
<feGaussianBlur stdDeviation="2"/>
<feComposite in2="hardAlpha" operator="arithmetic" k2="-1" k3="1"/>
<feColorMatrix type="matrix" values="0 0 0 0 0.67451 0 0 0 0 0.576471 0 0 0 0 0.427451 0 0 0 0.25 0"/>
<feBlend mode="normal" in2="shape" result="effect1_innerShadow_512_647"/>
</filter>
</defs>
</svg>
