<svg width="408" height="410" viewBox="0 0 408 410" fill="none" xmlns="http://www.w3.org/2000/svg">
<path d="M391.662 216.233C401.585 216.83 409.227 225.379 407.762 235.212C401.595 276.607 382.871 315.284 353.909 345.894C320.808 380.878 276.447 403.091 228.606 408.636C180.765 414.182 132.498 402.707 92.2721 376.223C52.0459 349.74 22.4283 309.939 8.61398 263.801C-5.20034 217.663 -2.32935 168.134 16.7234 123.902C35.7762 79.6691 69.7942 43.5568 112.811 21.8984C155.828 0.240059 205.097 -5.58139 251.977 5.45507C292.995 15.1116 329.893 37.1346 357.795 68.3295C364.422 75.7392 362.737 87.0807 354.774 93.033L353.667 93.8607C345.705 99.813 334.491 98.1051 327.72 90.8267C305.184 66.6035 275.876 49.4858 243.41 41.8428C205.079 32.8189 164.795 37.5787 129.622 55.2876C94.4494 72.9965 66.6347 102.524 51.0563 138.69C35.4779 174.857 33.1304 215.354 44.4257 253.078C55.7209 290.803 79.9376 323.346 112.828 345C145.719 366.654 185.184 376.037 224.301 371.503C263.418 366.968 299.69 348.806 326.755 320.201C349.678 295.974 364.757 265.566 370.272 232.944C371.929 223.142 380.359 215.553 390.282 216.15L391.662 216.233Z" fill="#FFB800"/>
</svg>
