<svg width="89" height="145" viewBox="0 0 89 145" fill="none" xmlns="http://www.w3.org/2000/svg">
<g filter="url(#filter0_i_512_669)">
<ellipse cx="7.74069" cy="18.9232" rx="7.74069" ry="18.9232" transform="matrix(0.812497 0.582966 -0.56419 0.825645 23.8745 80.5889)" fill="#FAFFF7"/>
</g>
<path d="M25.3706 104.946C22.4497 109.221 19.1204 112.57 16.1162 114.538C14.613 115.522 13.2129 116.147 12.0024 116.381C10.7938 116.616 9.8174 116.456 9.09332 115.936C8.36923 115.417 7.88865 114.531 7.69027 113.287C7.49157 112.041 7.58515 110.48 7.97384 108.696C8.75067 105.13 10.6837 100.779 13.6045 96.5042C16.5253 92.2298 19.8546 88.8803 22.8588 86.9128C24.362 85.9283 25.7621 85.3041 26.9726 85.0692C28.1812 84.8348 29.1576 84.9947 29.8817 85.5142C30.6058 86.0338 31.0864 86.9193 31.2847 88.1632C31.4835 89.4091 31.3899 90.9708 31.0012 92.7549C30.2243 96.3206 28.2914 100.672 25.3706 104.946Z" stroke="black" fill="#FEFFF7"/>
<g filter="url(#filter1_i_512_669)">
<ellipse cx="6.38932" cy="12.4825" rx="6.38932" ry="12.4825" transform="matrix(-0.135882 -0.990725 0.989789 -0.142541 19.6152 144.995)" fill="#FAFFF7"/>
</g>
<path d="M30.3018 131.051C33.6517 130.569 36.7556 130.832 39.0594 131.625C41.3916 132.428 42.7612 133.712 42.9622 135.178C43.1632 136.643 42.1922 138.265 40.1663 139.695C38.165 141.108 35.2522 142.238 31.9023 142.72C28.5524 143.203 25.4485 142.939 23.1447 142.147C20.8125 141.344 19.4429 140.059 19.2419 138.594C19.041 137.128 20.0119 135.507 22.0378 134.076C24.0391 132.663 26.9519 131.534 30.3018 131.051Z" stroke="black" fill="#FEFFF7"/>
<g filter="url(#filter2_i_512_669)">
<ellipse cx="6.38932" cy="12.4825" rx="6.38932" ry="12.4825" transform="matrix(0.135882 -0.990725 0.989789 0.142541 46.6704 141.436)" fill="#FAFFF7"/>
</g>
<path d="M60.6939 131.051C64.0438 131.533 66.9565 132.663 68.9579 134.076C70.9837 135.506 71.9547 137.128 71.7537 138.593C71.5527 140.059 70.1831 141.343 67.851 142.146C65.5471 142.939 62.4433 143.202 59.0934 142.72C55.7434 142.238 52.8307 141.108 50.8294 139.695C48.8035 138.264 47.8325 136.643 48.0335 135.177C48.2345 133.712 49.6041 132.427 51.9362 131.625C54.2401 130.832 57.3439 130.568 60.6939 131.051Z" stroke="black" fill="#FEFFF7"/>
<g filter="url(#filter3_i_512_669)">
<path d="M23.906 99.5673C23.7312 99.0453 23.6324 98.4867 23.6367 97.9362C23.7778 80.0335 33.313 79.707 45.2308 79.6041C57.115 79.5016 66.333 80.0242 66.8074 97.7852C66.8247 98.4342 66.6982 99.089 66.4724 99.6978C62.6891 109.899 57.4446 134.575 45.7107 134.676C33.9841 134.777 26.8394 108.328 23.906 99.5673Z" fill="#FAFFF7"/>
</g>
<path d="M24.3802 99.4084C24.221 98.9329 24.1329 98.4293 24.1367 97.9399C24.2066 89.0688 26.5989 84.7271 30.2744 82.524C32.1372 81.4075 34.3746 80.8107 36.9112 80.4904C39.4495 80.1699 42.251 80.1299 45.2349 80.1041C51.2112 80.0525 56.3324 80.1725 60.0381 82.4232C63.677 84.6334 66.0724 88.9942 66.3076 97.7987C66.3229 98.375 66.2105 98.9662 66.0036 99.5241C65.3207 101.365 64.5896 103.678 63.7866 106.218C63.4714 107.215 63.1452 108.247 62.8064 109.299C61.6005 113.045 60.2297 117.07 58.6147 120.775C56.9975 124.484 55.1485 127.842 52.9985 130.271C50.8509 132.698 48.4467 134.152 45.7066 134.176C42.9776 134.2 40.458 132.68 38.1392 130.129C35.823 127.58 33.7638 124.061 31.9634 120.232C29.0742 114.088 26.8913 107.241 25.3784 102.496C25.005 101.324 24.6725 100.281 24.3802 99.4084Z" stroke="black"/>
<g filter="url(#filter4_i_512_669)">
<path d="M88.9313 52.408C88.9313 87.0654 58.1868 96.4724 44.784 95.9773C30.3548 96.4724 0.123436 85.5801 0.636578 52.408C1.14972 19.2359 19.607 2.89746 44.784 2.89746C69.9609 2.89746 88.9313 17.7506 88.9313 52.408Z" fill="#FAFFF7"/>
</g>
<path d="M44.8024 95.4776L44.7846 95.477L44.7668 95.4776C37.6608 95.7214 26.6064 93.1539 17.4023 86.4144C8.22172 79.6922 0.882712 68.823 1.13652 52.4157C1.3917 35.9194 6.10651 23.6748 13.8237 15.5577C21.5381 7.44346 32.3061 3.39746 44.784 3.39746C57.2755 3.39746 68.1696 7.08044 75.942 15.0063C83.7146 22.9323 88.4313 35.1686 88.4313 52.408C88.4313 69.5626 80.8339 80.4313 71.595 86.9666C62.3302 93.5203 51.4032 95.7215 44.8024 95.4776Z" stroke="black"/>
<path d="M84.9879 28.7544C84.1207 28.7544 82.9388 28.8901 81.3464 29.073C75.7376 29.7171 65.0358 30.9462 45.0513 28.8892C45.5998 28.4478 46.0493 28.0383 46.4037 27.6583C46.9474 27.0754 47.3105 26.517 47.4216 25.9811C47.5434 25.3936 47.3509 24.8862 46.9214 24.5124C46.5271 24.1692 45.9514 23.9512 45.2944 23.8071C43.9693 23.5164 42.0564 23.4744 39.8135 23.5895C37.5591 23.7053 34.9296 23.9826 32.1503 24.3508C26.5914 25.0872 20.4039 26.1913 15.3677 27.1095C14.8175 27.2098 14.2812 27.3079 13.7611 27.403C11.8978 27.7437 10.2412 28.0466 8.89343 28.2796C7.14522 28.5817 5.97701 28.7544 5.53788 28.7544C5.46121 28.7544 5.38445 28.7282 5.29485 28.62C5.19402 28.4981 5.08884 28.2811 5.01517 27.9402C4.86829 27.2603 4.87743 26.2325 5.12092 24.9424C5.60559 22.3745 6.99399 18.8997 9.65646 15.3748C14.9676 8.34315 25.3591 1.10145 43.7605 0.532682C62.53 -0.0474607 73.6548 7.19223 79.6168 14.5205C82.6051 18.1937 84.2986 21.8916 85.0087 24.6487C85.3653 26.0333 85.4657 27.149 85.3788 27.8927C85.335 28.2678 85.2483 28.5049 85.1613 28.6343C85.0872 28.7444 85.0335 28.7544 84.9879 28.7544Z" fill="#181818" stroke="black"/>
<rect x="19.2207" y="37.1978" width="18.5897" height="24.4995" rx="7" stroke="black"/>
<rect x="51.7529" y="37.1978" width="18.5897" height="24.4995" rx="7" stroke="black"/>
<path d="M37.8093 46.9966L51.7516 46.9966" stroke="black"/>
<path d="M1.29028 46.2139L19.8883 46.961" stroke="black"/>
<path d="M69.7734 46.4438L87.8046 45.2979" stroke="black"/>
<path d="M33.0467 49.3888C33.0467 53.3225 31.7094 53.3225 28.7279 53.3225C25.7465 53.3225 24.4092 53.3225 24.4092 49.3888C24.4092 45.4551 25.7465 45.4551 28.7279 45.4551C31.7094 45.4551 33.0467 45.4551 33.0467 49.3888Z" fill="black"/>
<path d="M31.457 47.0163C31.457 48.7352 30.9336 48.7352 29.7666 48.7352C28.5996 48.7352 28.0762 48.7352 28.0762 47.0163C28.0762 45.2974 28.5996 45.2974 29.7666 45.2974C30.9336 45.2974 31.457 45.2974 31.457 47.0163Z" fill="white"/>
<path d="M64.8875 49.3888C64.8875 53.3225 63.5502 53.3225 60.5688 53.3225C57.5873 53.3225 56.25 53.3225 56.25 49.3888C56.25 45.4551 57.5873 45.4551 60.5688 45.4551C63.5502 45.4551 64.8875 45.4551 64.8875 49.3888Z" fill="black"/>
<path d="M63.2971 47.0163C63.2971 48.7352 62.7737 48.7352 61.6067 48.7352C60.4397 48.7352 59.9163 48.7352 59.9163 47.0163C59.9163 45.2974 60.4397 45.2974 61.6067 45.2974C62.7737 45.2974 63.2971 45.2974 63.2971 47.0163Z" fill="white"/>
<path d="M37.8093 64.3654C37.8093 63.5306 38.409 62.8164 39.2311 62.6719L43.574 61.9088C44.3722 61.7685 45.1888 61.7685 45.987 61.9088L50.3298 62.6719C51.152 62.8164 51.7516 63.5306 51.7516 64.3654C51.7516 65.493 50.6844 66.3154 49.594 66.028L45.9573 65.0694C45.1859 64.8661 44.375 64.8661 43.6036 65.0694L39.967 66.028C38.8766 66.3154 37.8093 65.493 37.8093 64.3654Z" fill="black"/>
<g filter="url(#filter5_i_512_669)">
<ellipse cx="7.70146" cy="19.017" rx="7.70146" ry="19.017" transform="matrix(0.950233 -0.311539 0.29656 0.955014 49.4888 62.7017)" fill="#FAFFF7"/>
</g>
<path d="M69.2897 76.2203C70.8328 81.1896 71.4105 85.9328 71.1132 89.5745C70.9644 91.3968 70.5987 92.9169 70.046 94.0464C69.494 95.1744 68.7779 95.8724 67.938 96.1478C67.0981 96.4232 66.1209 96.2803 65.0352 95.6892C63.9479 95.0974 62.7929 94.0758 61.6445 92.6789C59.3494 89.8871 57.1467 85.6767 55.6036 80.7074C54.0604 75.738 53.4828 70.9949 53.7801 67.3532C53.9288 65.5309 54.2946 64.0108 54.8473 62.8812C55.3992 61.7533 56.1153 61.0552 56.9552 60.7799C57.7951 60.5045 58.7724 60.6474 59.8581 61.2384C60.9454 61.8303 62.1004 62.8518 63.2488 64.2488C65.5439 67.0406 67.7466 71.251 69.2897 76.2203Z" stroke="black"/>
<path d="M22.1733 34.2463C21.8722 34.0755 21.8095 33.6679 22.0709 33.441C22.6975 32.897 23.4533 32.4505 24.2988 32.1275C25.377 31.7157 26.568 31.5173 27.7672 31.5499C28.9663 31.5824 30.1369 31.8448 31.176 32.3141C31.986 32.68 32.6968 33.1628 33.2719 33.735C33.5195 33.9813 33.4286 34.3868 33.1147 34.5401C32.885 34.6523 32.6103 34.5878 32.4338 34.4029C31.9362 33.8814 31.3071 33.4434 30.5836 33.1166C29.7126 32.7232 28.7313 32.5032 27.7261 32.4759C26.7209 32.4487 25.7224 32.6149 24.8186 32.9602C24.061 33.2496 23.3893 33.6573 22.8439 34.1568C22.6604 34.3248 22.3897 34.3691 22.1733 34.2463Z" fill="black"/>
<path d="M54.8547 34.2463C54.5536 34.0755 54.4909 33.6679 54.7523 33.441C55.3789 32.897 56.1347 32.4505 56.9802 32.1275C58.0584 31.7157 59.2494 31.5173 60.4485 31.5499C61.6477 31.5824 62.8183 31.8448 63.8574 32.3141C64.6674 32.68 65.3782 33.1628 65.9533 33.735C66.2009 33.9813 66.11 34.3868 65.7961 34.5401C65.5664 34.6523 65.2917 34.5878 65.1152 34.4029C64.6176 33.8814 63.9885 33.4434 63.265 33.1166C62.394 32.7232 61.4127 32.5032 60.4075 32.4759C59.4022 32.4487 58.4038 32.6149 57.5 32.9602C56.7424 33.2496 56.0707 33.6573 55.5253 34.1568C55.3418 34.3248 55.0711 34.3691 54.8547 34.2463Z" fill="black"/>
<defs>
<filter id="filter0_i_512_669" x="7.09448" y="84.4585" width="24.7861" height="32.5337" filterUnits="userSpaceOnUse" color-interpolation-filters="sRGB">
<feFlood flood-opacity="0" result="BackgroundImageFix"/>
<feBlend mode="normal" in="SourceGraphic" in2="BackgroundImageFix" result="shape"/>
<feColorMatrix in="SourceAlpha" type="matrix" values="0 0 0 0 0 0 0 0 0 0 0 0 0 0 0 0 0 0 127 0" result="hardAlpha"/>
<feOffset dy="-50"/>
<feGaussianBlur stdDeviation="2"/>
<feComposite in2="hardAlpha" operator="arithmetic" k2="-1" k3="1"/>
<feColorMatrix type="matrix" values="0 0 0 0 0.8 0 0 0 0 0.803922 0 0 0 0 0.764706 0 0 0 0.23 0"/>
<feBlend mode="normal" in2="shape" result="effect1_innerShadow_512_669"/>
</filter>
<filter id="filter1_i_512_669" x="18.7161" y="130.309" width="24.772" height="13.1543" filterUnits="userSpaceOnUse" color-interpolation-filters="sRGB">
<feFlood flood-opacity="0" result="BackgroundImageFix"/>
<feBlend mode="normal" in="SourceGraphic" in2="BackgroundImageFix" result="shape"/>
<feColorMatrix in="SourceAlpha" type="matrix" values="0 0 0 0 0 0 0 0 0 0 0 0 0 0 0 0 0 0 127 0" result="hardAlpha"/>
<feOffset dy="-50"/>
<feGaussianBlur stdDeviation="2"/>
<feComposite in2="hardAlpha" operator="arithmetic" k2="-1" k3="1"/>
<feColorMatrix type="matrix" values="0 0 0 0 0.8 0 0 0 0 0.803922 0 0 0 0 0.764706 0 0 0 0.23 0"/>
<feBlend mode="normal" in2="shape" result="effect1_innerShadow_512_669"/>
</filter>
<filter id="filter2_i_512_669" x="47.5076" y="130.308" width="24.772" height="13.1543" filterUnits="userSpaceOnUse" color-interpolation-filters="sRGB">
<feFlood flood-opacity="0" result="BackgroundImageFix"/>
<feBlend mode="normal" in="SourceGraphic" in2="BackgroundImageFix" result="shape"/>
<feColorMatrix in="SourceAlpha" type="matrix" values="0 0 0 0 0 0 0 0 0 0 0 0 0 0 0 0 0 0 127 0" result="hardAlpha"/>
<feOffset dy="-50"/>
<feGaussianBlur stdDeviation="2"/>
<feComposite in2="hardAlpha" operator="arithmetic" k2="-1" k3="1"/>
<feColorMatrix type="matrix" values="0 0 0 0 0.8 0 0 0 0 0.803922 0 0 0 0 0.764706 0 0 0 0.23 0"/>
<feBlend mode="normal" in2="shape" result="effect1_innerShadow_512_669"/>
</filter>
<filter id="filter3_i_512_669" x="23.6367" y="75.5957" width="43.1721" height="59.0806" filterUnits="userSpaceOnUse" color-interpolation-filters="sRGB">
<feFlood flood-opacity="0" result="BackgroundImageFix"/>
<feBlend mode="normal" in="SourceGraphic" in2="BackgroundImageFix" result="shape"/>
<feColorMatrix in="SourceAlpha" type="matrix" values="0 0 0 0 0 0 0 0 0 0 0 0 0 0 0 0 0 0 127 0" result="hardAlpha"/>
<feOffset dy="-50"/>
<feGaussianBlur stdDeviation="2"/>
<feComposite in2="hardAlpha" operator="arithmetic" k2="-1" k3="1"/>
<feColorMatrix type="matrix" values="0 0 0 0 0.8 0 0 0 0 0.803922 0 0 0 0 0.764706 0 0 0 0.23 0"/>
<feBlend mode="normal" in2="shape" result="effect1_innerShadow_512_669"/>
</filter>
<filter id="filter4_i_512_669" x="0.630127" y="-1.10254" width="88.3013" height="97.0981" filterUnits="userSpaceOnUse" color-interpolation-filters="sRGB">
<feFlood flood-opacity="0" result="BackgroundImageFix"/>
<feBlend mode="normal" in="SourceGraphic" in2="BackgroundImageFix" result="shape"/>
<feColorMatrix in="SourceAlpha" type="matrix" values="0 0 0 0 0 0 0 0 0 0 0 0 0 0 0 0 0 0 127 0" result="hardAlpha"/>
<feOffset dy="-6"/>
<feGaussianBlur stdDeviation="2"/>
<feComposite in2="hardAlpha" operator="arithmetic" k2="-1" k3="1"/>
<feColorMatrix type="matrix" values="0 0 0 0 0.8 0 0 0 0 0.803922 0 0 0 0 0.764706 0 0 0 0.25 0"/>
<feBlend mode="normal" in2="shape" result="effect1_innerShadow_512_669"/>
</filter>
<filter id="filter5_i_512_669" x="53.207" y="56.1426" width="18.4792" height="40.6426" filterUnits="userSpaceOnUse" color-interpolation-filters="sRGB">
<feFlood flood-opacity="0" result="BackgroundImageFix"/>
<feBlend mode="normal" in="SourceGraphic" in2="BackgroundImageFix" result="shape"/>
<feColorMatrix in="SourceAlpha" type="matrix" values="0 0 0 0 0 0 0 0 0 0 0 0 0 0 0 0 0 0 127 0" result="hardAlpha"/>
<feOffset dy="-6"/>
<feGaussianBlur stdDeviation="2"/>
<feComposite in2="hardAlpha" operator="arithmetic" k2="-1" k3="1"/>
<feColorMatrix type="matrix" values="0 0 0 0 0.8 0 0 0 0 0.803922 0 0 0 0 0.764706 0 0 0 0.23 0"/>
<feBlend mode="normal" in2="shape" result="effect1_innerShadow_512_669"/>
</filter>
</defs>
</svg>
