<svg width="71" height="143" viewBox="0 0 71 143" fill="none" xmlns="http://www.w3.org/2000/svg">
<g filter="url(#filter0_i_512_691)">
<ellipse cx="4.52055" cy="9.96495" rx="4.52055" ry="9.96495" transform="matrix(0.854339 -0.519716 0.627525 0.778597 42.96 84.0435)" fill="#FEFFF7"/>
</g>
<path d="M56.5102 87.3632C58.2028 89.4633 59.2954 91.604 59.7093 93.3535C60.1341 95.1491 59.8103 96.3382 59.0148 96.8221C58.2193 97.306 56.8224 97.1637 55.0255 96.2027C53.2748 95.2665 51.333 93.6424 49.6404 91.5423C47.9478 89.4422 46.8552 87.3014 46.4413 85.552C46.0165 83.7564 46.3403 82.5673 47.1358 82.0834C47.9313 81.5994 49.3282 81.7418 51.1251 82.7027C52.8758 83.6389 54.8176 85.2631 56.5102 87.3632Z" stroke="black"/>
<g filter="url(#filter1_i_512_691)">
<ellipse cx="4.08855" cy="11.7088" rx="4.08855" ry="11.7088" transform="matrix(0.159692 -0.987167 0.992628 0.121199 34.376 140.162)" fill="#FEFFF7"/>
</g>
<path d="M47.2244 134.003C50.3934 134.39 53.1689 135.184 55.0924 136.141C56.0563 136.62 56.7809 137.128 57.2371 137.624C57.6961 138.123 57.8343 138.553 57.7775 138.904C57.7207 139.255 57.4515 139.635 56.8519 140.004C56.256 140.372 55.3984 140.687 54.3198 140.917C52.1673 141.375 49.2473 141.475 46.0783 141.088C42.9093 140.701 40.1339 139.906 38.2104 138.95C37.2464 138.47 36.5218 137.963 36.0656 137.467C35.6066 136.967 35.4684 136.538 35.5252 136.187C35.582 135.836 35.8512 135.456 36.4508 135.086C37.0467 134.718 37.9043 134.404 38.9829 134.174C41.1354 133.715 44.0554 133.616 47.2244 134.003Z" stroke="black"/>
<g filter="url(#filter2_i_512_691)">
<ellipse cx="4.08855" cy="11.7088" rx="4.08855" ry="11.7088" transform="matrix(-0.159692 -0.987167 0.992628 -0.121199 13.9485 142.961)" fill="#FEFFF7"/>
</g>
<path d="M24.345 133.963C27.5139 133.576 30.434 133.675 32.5865 134.134C33.6651 134.364 34.5227 134.679 35.1186 135.046C35.7182 135.416 35.9874 135.796 36.0442 136.147C36.101 136.498 35.9628 136.928 35.5037 137.427C35.0476 137.923 34.323 138.431 33.359 138.91C31.4355 139.867 28.6601 140.661 25.4911 141.048C22.3221 141.435 19.4021 141.336 17.2496 140.877C16.171 140.647 15.3134 140.333 14.7175 139.965C14.1179 139.595 13.8487 139.215 13.7919 138.864C13.7351 138.513 13.8733 138.084 14.3323 137.584C14.7885 137.088 15.5131 136.581 16.477 136.101C18.4005 135.145 21.176 134.35 24.345 133.963Z" stroke="black"/>
<g filter="url(#filter3_i_512_691)">
<path d="M21.278 94.9257C20.5765 93.3614 20.1004 91.682 20.1402 89.9681C20.6327 68.7854 27.2378 69.2327 35.4438 69.2327C43.6331 69.2327 50.0231 69.3253 50.5232 90.4191C50.5658 92.2161 50.0427 93.9765 49.2628 95.596C41.4352 111.851 43.5769 139.318 35.463 139.318C27.3606 139.318 28.1938 110.347 21.278 94.9257Z" fill="#FEFFF7"/>
</g>
<path d="M21.7343 94.7211C21.0512 93.198 20.6026 91.5947 20.6401 89.9797C20.8862 79.394 22.6658 74.4067 25.2391 72.0237C27.7188 69.7275 31.0434 69.7298 35.0277 69.7325C35.1656 69.7326 35.3043 69.7327 35.4438 69.7327C39.5852 69.7327 43.002 69.7801 45.515 72.2708C48.0464 74.7798 49.7734 79.8908 50.0233 90.4309C50.0634 92.1242 49.5705 93.8047 48.8123 95.379C45.2908 102.692 43.7705 112.237 42.4549 120.497C42.2936 121.51 42.1353 122.504 41.9768 123.472C41.2469 127.928 40.5158 131.821 39.4734 134.596C38.4148 137.415 37.1385 138.818 35.463 138.818C34.6201 138.818 33.8719 138.448 33.1767 137.702C32.4716 136.945 31.8403 135.819 31.2659 134.366C30.1171 131.461 29.2526 127.404 28.4174 122.815C28.1515 121.354 27.8888 119.84 27.6209 118.295C26.2159 110.196 24.6654 101.257 21.7343 94.7211Z" stroke="black"/>
<path d="M69.6193 50.7408C69.1309 60.9251 64.0639 69.7435 57.4024 76.153C50.7454 82.5582 42.5481 86.5082 35.8486 87.026C29.1542 86.5153 20.9635 82.4606 14.3747 75.9457C7.78177 69.4267 2.84845 60.4989 2.61412 50.3181C2.14407 29.8957 17.4426 13.7824 36.3445 13.8786C55.2509 13.9747 70.5983 30.3267 69.6193 50.7408Z" fill="#FEFFF7" stroke="black"/>
<path d="M24.6556 49.6109C24.6556 52.7868 23.7907 54.0488 19.6143 54.0488C15.4379 54.0488 14.2578 52.7868 14.2578 49.6109C14.2578 46.4349 15.4379 44.7041 19.6143 44.7041C23.7907 44.7041 24.6556 46.4349 24.6556 49.6109Z" fill="black"/>
<path d="M23.7019 47.443C23.7019 48.8931 23.306 49.4693 21.3946 49.4693C19.4832 49.4693 18.9431 48.8931 18.9431 47.443C18.9431 45.9929 19.4832 45.2026 21.3946 45.2026C23.306 45.2026 23.7019 45.9929 23.7019 47.443Z" fill="white"/>
<path d="M57.5824 49.6109C57.5824 52.7868 56.7174 54.0488 52.541 54.0488C48.3646 54.0488 47.1846 52.7868 47.1846 49.6109C47.1846 46.4349 48.3646 44.7041 52.541 44.7041C56.7174 44.7041 57.5824 46.4349 57.5824 49.6109Z" fill="black"/>
<path d="M56.6291 47.443C56.6291 48.8931 56.2332 49.4693 54.3218 49.4693C52.4104 49.4693 51.8704 48.8931 51.8704 47.443C51.8704 45.9929 52.4104 45.2026 54.3218 45.2026C56.2332 45.2026 56.6291 45.9929 56.6291 47.443Z" fill="white"/>
<path d="M20.9871 60.0802C20.9871 62.7665 19.4948 64.9442 16.5624 64.9442C13.63 64.9442 11.9165 62.7665 11.9165 60.0802C11.9165 57.394 13.63 55.2163 16.5624 55.2163C19.4948 55.2163 20.9871 57.394 20.9871 60.0802Z" fill="#FADAD4"/>
<path d="M59.9242 60.0802C59.9242 62.7665 58.432 64.9442 55.4995 64.9442C52.5671 64.9442 50.8536 62.7665 50.8536 60.0802C50.8536 57.394 52.5671 55.2163 55.4995 55.2163C58.432 55.2163 59.9242 57.394 59.9242 60.0802Z" fill="#FADAD4"/>
<path d="M40.0888 58.7206C40.6962 58.7206 41.2044 59.2314 40.9653 59.7898C40.7399 60.3162 40.349 60.8003 39.8168 61.1985C38.9385 61.8556 37.7472 62.2248 36.505 62.2248C35.2628 62.2248 34.0715 61.8556 33.1931 61.1985C32.661 60.8003 32.2701 60.3162 32.0446 59.7898C31.8055 59.2314 32.3137 58.7206 32.9211 58.7206C33.5285 58.7206 34.0183 59.2618 34.4134 59.7232C34.509 59.8349 34.6211 59.9395 34.7485 60.0347C35.2143 60.3833 35.8462 60.5791 36.505 60.5791C37.1638 60.5791 37.7956 60.3833 38.2614 60.0347C38.3888 59.9395 38.5009 59.8349 38.5966 59.7232C38.9916 59.2618 39.4814 58.7206 40.0888 58.7206Z" fill="black"/>
<g filter="url(#filter4_i_512_691)">
<ellipse cx="4.51588" cy="11.6373" rx="4.51588" ry="11.6373" transform="matrix(0.550736 0.834679 -0.758018 0.652233 57.6621 90.2529)" fill="#FEFFF7"/>
</g>
<path d="M53.5396 104.964C51.1384 107.031 48.7068 108.47 46.7294 109.138C45.7391 109.472 44.8873 109.605 44.2213 109.545C43.5557 109.486 43.1257 109.24 42.8857 108.877C42.6456 108.513 42.5578 107.973 42.6909 107.226C42.8242 106.478 43.1709 105.58 43.7256 104.585C44.8332 102.599 46.715 100.327 49.1162 98.2605C51.5175 96.1943 53.9491 94.7552 55.9265 94.0871C56.9167 93.7525 57.7685 93.6197 58.4346 93.6795C59.1001 93.7393 59.5301 93.9845 59.7702 94.3484C60.0102 94.7122 60.098 95.2518 59.9649 95.9989C59.8316 96.7465 59.485 97.6448 58.9303 98.6396C57.8227 100.626 55.9408 102.898 53.5396 104.964Z" stroke="black"/>
<g filter="url(#filter5_i_512_691)">
<path d="M70.4438 34.2488C67.3833 49.5851 70.9967 41.241 36.6307 41.22C2.26475 41.199 2.96687 50.9791 0.907648 34.2491C-1.15158 17.5191 15.8454 3.30148 36.6418 3.40729C57.4382 3.5131 73.5042 18.9125 70.4438 34.2488Z" fill="#FAB9B9"/>
</g>
<path d="M69.9534 34.1518C69.7822 35.01 69.6329 35.7879 69.4971 36.4961C69.3269 37.3833 69.1777 38.161 69.0325 38.8501C68.7714 40.0888 68.5363 40.9721 68.2474 41.6037C67.9659 42.2191 67.652 42.5544 67.2461 42.7488C66.8174 42.9542 66.2189 43.0357 65.3003 42.9939C64.3859 42.9524 63.2231 42.7937 61.6972 42.5725C61.513 42.5458 61.3238 42.5182 61.1295 42.4899C59.722 42.2848 58.0441 42.0404 56.0422 41.7999C51.4824 41.2521 45.2448 40.7253 36.6318 40.72C23.9704 40.7123 15.9803 42.041 10.9504 42.8774C9.15348 43.1763 7.73435 43.4123 6.615 43.502C5.54108 43.5882 4.78735 43.538 4.22764 43.332C3.69622 43.1364 3.29905 42.7849 2.96733 42.1587C2.62409 41.5107 2.35902 40.5825 2.11609 39.26C1.87426 37.9435 1.66171 36.2817 1.40391 34.1872C0.398833 26.0216 4.03742 18.4412 10.5283 12.8947C17.0216 7.34606 26.3512 3.85494 36.6384 3.90728C46.9163 3.95957 56.0104 7.79154 62.1488 13.4835C68.2892 19.1774 71.4414 26.6952 69.9534 34.1518Z" stroke="black"/>
<g filter="url(#filter6_i_512_691)">
<path d="M66.2414 40.7085C60.5604 53.6848 61.2878 42.614 36.4162 42.614C11.5447 42.614 12.0966 53.5811 4.9937 41.0339C-2.10921 28.4868 25.1437 25.8268 36.4163 25.8836C49.8893 25.8837 71.9224 27.7323 66.2414 40.7085Z" fill="#FAB9B9"/>
</g>
<path d="M36.4129 26.3836L36.4154 26.3836C43.147 26.3836 51.9556 26.8476 58.3579 28.906C61.5652 29.9373 64.0864 31.3436 65.4703 33.2155C66.8211 35.0426 67.1466 37.395 65.7834 40.5086C65.0761 42.1243 64.4768 43.3462 63.9221 44.2563C63.3659 45.1689 62.874 45.735 62.395 46.0717C61.4911 46.7072 60.4932 46.6227 58.6762 46.0504C58.1799 45.8941 57.6368 45.7067 57.0368 45.4996C53.2596 44.196 47.2267 42.114 36.4171 42.114C25.697 42.114 19.6422 44.1428 15.7131 45.4594C15.0515 45.6811 14.4502 45.8826 13.897 46.0508C11.9805 46.6336 10.7867 46.7659 9.64438 46.1362C8.44712 45.4762 7.20924 43.932 5.42892 40.7871C4.57623 39.2808 4.26193 37.964 4.34105 36.8116C4.4199 35.6634 4.89261 34.6299 5.70049 33.6911C7.33618 31.7904 10.3132 30.3172 13.9587 29.2107C21.2243 27.0053 30.7989 26.3553 36.4129 26.3836Z" stroke="black"/>
<g filter="url(#filter7_i_512_691)">
<ellipse cx="4.51875" cy="9.96297" rx="4.51875" ry="9.96297" transform="matrix(0.752126 0.659019 -0.558224 0.82969 19.5254 78.5781)" fill="#FEFFF7"/>
</g>
<path d="M20.3851 92.4707C18.8797 94.7082 17.1567 96.3863 15.6059 97.3016C14.0142 98.241 12.78 98.2869 12.08 97.6736C11.3801 97.0603 11.1002 95.6878 11.4844 93.6903C11.8588 91.7443 12.8345 89.4113 14.3399 87.1738C15.8453 84.9363 17.5683 83.2582 19.1191 82.3429C20.7108 81.4035 21.945 81.3576 22.645 81.9709C23.3449 82.5842 23.6248 83.9567 23.2406 85.9542C22.8662 87.9002 21.8905 90.2332 20.3851 92.4707Z" stroke="black"/>
<g filter="url(#filter8_i_512_691)">
<ellipse cx="4.51173" cy="11.6558" rx="4.51173" ry="11.6558" transform="matrix(0.764254 -0.644915 0.740197 0.672391 7.95752 95.8408)" fill="#FEFFF7"/>
</g>
<path d="M23.0992 98.1812C25.4479 100.315 27.1763 102.553 28.0821 104.432C28.5357 105.373 28.7717 106.201 28.7932 106.868C28.8148 107.535 28.6231 107.989 28.2907 108.269C27.9584 108.55 27.4326 108.701 26.6727 108.658C25.9124 108.614 24.9761 108.377 23.9185 107.946C21.8066 107.084 19.3159 105.489 16.9673 103.356C14.6186 101.222 12.8902 98.9842 11.9844 97.1047C11.5307 96.1635 11.2948 95.3355 11.2732 94.6687C11.2517 94.0023 11.4434 93.5478 11.7757 93.2673C12.1081 92.9869 12.6339 92.8359 13.3938 92.8793C14.154 92.9227 15.0904 93.1597 16.148 93.5912C18.2599 94.453 20.7506 96.0477 23.0992 98.1812Z" stroke="black"/>
<ellipse cx="36.4002" cy="3.57694" rx="5.68092" ry="2.78837" fill="#FFA4A4"/>
<defs>
<filter id="filter0_i_512_691" x="45.7246" y="81.3442" width="14.7014" height="16.2173" filterUnits="userSpaceOnUse" color-interpolation-filters="sRGB">
<feFlood flood-opacity="0" result="BackgroundImageFix"/>
<feBlend mode="normal" in="SourceGraphic" in2="BackgroundImageFix" result="shape"/>
<feColorMatrix in="SourceAlpha" type="matrix" values="0 0 0 0 0 0 0 0 0 0 0 0 0 0 0 0 0 0 127 0" result="hardAlpha"/>
<feOffset dy="-50"/>
<feGaussianBlur stdDeviation="2"/>
<feComposite in2="hardAlpha" operator="arithmetic" k2="-1" k3="1"/>
<feColorMatrix type="matrix" values="0 0 0 0 0.8 0 0 0 0 0.803922 0 0 0 0 0.764706 0 0 0 0.23 0"/>
<feBlend mode="normal" in2="shape" result="effect1_innerShadow_512_691"/>
</filter>
<filter id="filter1_i_512_691" x="35.0103" y="133.266" width="23.2822" height="8.55908" filterUnits="userSpaceOnUse" color-interpolation-filters="sRGB">
<feFlood flood-opacity="0" result="BackgroundImageFix"/>
<feBlend mode="normal" in="SourceGraphic" in2="BackgroundImageFix" result="shape"/>
<feColorMatrix in="SourceAlpha" type="matrix" values="0 0 0 0 0 0 0 0 0 0 0 0 0 0 0 0 0 0 127 0" result="hardAlpha"/>
<feOffset dy="-50"/>
<feGaussianBlur stdDeviation="2"/>
<feComposite in2="hardAlpha" operator="arithmetic" k2="-1" k3="1"/>
<feColorMatrix type="matrix" values="0 0 0 0 0.8 0 0 0 0 0.803922 0 0 0 0 0.764706 0 0 0 0.23 0"/>
<feBlend mode="normal" in2="shape" result="effect1_innerShadow_512_691"/>
</filter>
<filter id="filter2_i_512_691" x="13.2769" y="133.226" width="23.2822" height="8.55908" filterUnits="userSpaceOnUse" color-interpolation-filters="sRGB">
<feFlood flood-opacity="0" result="BackgroundImageFix"/>
<feBlend mode="normal" in="SourceGraphic" in2="BackgroundImageFix" result="shape"/>
<feColorMatrix in="SourceAlpha" type="matrix" values="0 0 0 0 0 0 0 0 0 0 0 0 0 0 0 0 0 0 127 0" result="hardAlpha"/>
<feOffset dy="-50"/>
<feGaussianBlur stdDeviation="2"/>
<feComposite in2="hardAlpha" operator="arithmetic" k2="-1" k3="1"/>
<feColorMatrix type="matrix" values="0 0 0 0 0.8 0 0 0 0 0.803922 0 0 0 0 0.764706 0 0 0 0.23 0"/>
<feBlend mode="normal" in2="shape" result="effect1_innerShadow_512_691"/>
</filter>
<filter id="filter3_i_512_691" x="20.1379" y="65.2319" width="30.3877" height="74.0859" filterUnits="userSpaceOnUse" color-interpolation-filters="sRGB">
<feFlood flood-opacity="0" result="BackgroundImageFix"/>
<feBlend mode="normal" in="SourceGraphic" in2="BackgroundImageFix" result="shape"/>
<feColorMatrix in="SourceAlpha" type="matrix" values="0 0 0 0 0 0 0 0 0 0 0 0 0 0 0 0 0 0 127 0" result="hardAlpha"/>
<feOffset dy="-50"/>
<feGaussianBlur stdDeviation="2"/>
<feComposite in2="hardAlpha" operator="arithmetic" k2="-1" k3="1"/>
<feColorMatrix type="matrix" values="0 0 0 0 0.8 0 0 0 0 0.803922 0 0 0 0 0.764706 0 0 0 0.23 0"/>
<feBlend mode="normal" in2="shape" result="effect1_innerShadow_512_691"/>
</filter>
<filter id="filter4_i_512_691" x="42.1604" y="93.1357" width="18.335" height="16.9531" filterUnits="userSpaceOnUse" color-interpolation-filters="sRGB">
<feFlood flood-opacity="0" result="BackgroundImageFix"/>
<feBlend mode="normal" in="SourceGraphic" in2="BackgroundImageFix" result="shape"/>
<feColorMatrix in="SourceAlpha" type="matrix" values="0 0 0 0 0 0 0 0 0 0 0 0 0 0 0 0 0 0 127 0" result="hardAlpha"/>
<feOffset dy="-50"/>
<feGaussianBlur stdDeviation="2"/>
<feComposite in2="hardAlpha" operator="arithmetic" k2="-1" k3="1"/>
<feColorMatrix type="matrix" values="0 0 0 0 0.8 0 0 0 0 0.803922 0 0 0 0 0.764706 0 0 0 0.23 0"/>
<feBlend mode="normal" in2="shape" result="effect1_innerShadow_512_691"/>
</filter>
<filter id="filter5_i_512_691" x="0.738281" y="-0.193262" width="70.0806" height="44.2357" filterUnits="userSpaceOnUse" color-interpolation-filters="sRGB">
<feFlood flood-opacity="0" result="BackgroundImageFix"/>
<feBlend mode="normal" in="SourceGraphic" in2="BackgroundImageFix" result="shape"/>
<feColorMatrix in="SourceAlpha" type="matrix" values="0 0 0 0 0 0 0 0 0 0 0 0 0 0 0 0 0 0 127 0" result="hardAlpha"/>
<feOffset dy="-6"/>
<feGaussianBlur stdDeviation="1.8"/>
<feComposite in2="hardAlpha" operator="arithmetic" k2="-1" k3="1"/>
<feColorMatrix type="matrix" values="0 0 0 0 0.658773 0 0 0 0 0.659831 0 0 0 0 0.64893 0 0 0 0.5 0"/>
<feBlend mode="normal" in2="shape" result="effect1_innerShadow_512_691"/>
</filter>
<filter id="filter6_i_512_691" x="3.82935" y="25.8828" width="63.3291" height="25.1689" filterUnits="userSpaceOnUse" color-interpolation-filters="sRGB">
<feFlood flood-opacity="0" result="BackgroundImageFix"/>
<feBlend mode="normal" in="SourceGraphic" in2="BackgroundImageFix" result="shape"/>
<feColorMatrix in="SourceAlpha" type="matrix" values="0 0 0 0 0 0 0 0 0 0 0 0 0 0 0 0 0 0 127 0" result="hardAlpha"/>
<feOffset dy="11"/>
<feGaussianBlur stdDeviation="2"/>
<feComposite in2="hardAlpha" operator="arithmetic" k2="-1" k3="1"/>
<feColorMatrix type="matrix" values="0 0 0 0 0.957243 0 0 0 0 0.957243 0 0 0 0 0.957243 0 0 0 0.25 0"/>
<feBlend mode="normal" in2="shape" result="effect1_innerShadow_512_691"/>
</filter>
<filter id="filter7_i_512_691" x="10.8438" y="81.0337" width="13.0376" height="17.5771" filterUnits="userSpaceOnUse" color-interpolation-filters="sRGB">
<feFlood flood-opacity="0" result="BackgroundImageFix"/>
<feBlend mode="normal" in="SourceGraphic" in2="BackgroundImageFix" result="shape"/>
<feColorMatrix in="SourceAlpha" type="matrix" values="0 0 0 0 0 0 0 0 0 0 0 0 0 0 0 0 0 0 127 0" result="hardAlpha"/>
<feOffset dy="-50"/>
<feGaussianBlur stdDeviation="2"/>
<feComposite in2="hardAlpha" operator="arithmetic" k2="-1" k3="1"/>
<feColorMatrix type="matrix" values="0 0 0 0 0.8 0 0 0 0 0.803922 0 0 0 0 0.764706 0 0 0 0.23 0"/>
<feBlend mode="normal" in2="shape" result="effect1_innerShadow_512_691"/>
</filter>
<filter id="filter8_i_512_691" x="10.7397" y="92.4062" width="18.5872" height="16.7246" filterUnits="userSpaceOnUse" color-interpolation-filters="sRGB">
<feFlood flood-opacity="0" result="BackgroundImageFix"/>
<feBlend mode="normal" in="SourceGraphic" in2="BackgroundImageFix" result="shape"/>
<feColorMatrix in="SourceAlpha" type="matrix" values="0 0 0 0 0 0 0 0 0 0 0 0 0 0 0 0 0 0 127 0" result="hardAlpha"/>
<feOffset dy="-50"/>
<feGaussianBlur stdDeviation="2"/>
<feComposite in2="hardAlpha" operator="arithmetic" k2="-1" k3="1"/>
<feColorMatrix type="matrix" values="0 0 0 0 0.8 0 0 0 0 0.803922 0 0 0 0 0.764706 0 0 0 0.23 0"/>
<feBlend mode="normal" in2="shape" result="effect1_innerShadow_512_691"/>
</filter>
</defs>
</svg>
