<svg width="41" height="37" viewBox="0 0 41 37" fill="none" xmlns="http://www.w3.org/2000/svg">
<g filter="url(#filter0_i_88_200)">
<path d="M40.7819 24.1519C40.7819 35.3748 31.6526 36.9999 20.391 36.9999C9.12935 36.9999 0 35.3748 0 24.1519C0 12.929 9.12935 3.83105 20.391 3.83105C31.6526 3.83105 40.7819 12.929 40.7819 24.1519Z" fill="#FEFFF7"/>
</g>
<path d="M40.2819 24.1519C40.2819 26.8898 39.7255 29.002 38.75 30.638C37.7761 32.2715 36.3632 33.466 34.5894 34.3356C31.014 36.0885 26.0231 36.4999 20.391 36.4999C14.7588 36.4999 9.76789 36.0885 6.19248 34.3356C4.41876 33.466 3.00585 32.2715 2.03188 30.638C1.05644 29.002 0.5 26.8898 0.5 24.1519C0.5 13.2068 9.40386 4.33105 20.391 4.33105C31.3781 4.33105 40.2819 13.2068 40.2819 24.1519Z" stroke="black"/>
<path d="M16.1018 18.8835C16.1018 20.3094 15.8135 20.8759 14.4217 20.8759C13.0299 20.8759 12.6367 20.3094 12.6367 18.8836C12.6367 17.4577 13.0299 16.6807 14.4217 16.6807C15.8135 16.6807 16.1018 17.4577 16.1018 18.8835Z" fill="black"/>
<path d="M15.7838 17.9106C15.7838 18.5616 15.6518 18.8203 15.0148 18.8203C14.3779 18.8203 14.1979 18.5616 14.1979 17.9106C14.1979 17.2596 14.3779 16.9048 15.0148 16.9048C15.6518 16.9048 15.7838 17.2596 15.7838 17.9106Z" fill="white"/>
<path d="M11.4525 21.4004C11.4525 22.1244 10.5535 22.7114 8.78698 22.7114C7.02045 22.7114 5.98822 22.1244 5.98822 21.4004C5.98822 20.6763 7.02045 20.0894 8.78698 20.0894C10.5535 20.0894 11.4525 20.6763 11.4525 21.4004Z" fill="#DEB7AE"/>
<path d="M34.9087 21.4004C34.9087 22.1244 34.0098 22.7114 32.2432 22.7114C30.4767 22.7114 29.4445 22.1244 29.4445 21.4004C29.4445 20.6763 30.4767 20.0894 32.2432 20.0894C34.0098 20.0894 34.9087 20.6763 34.9087 21.4004Z" fill="#DEB7AE"/>
<path d="M28.3631 18.8835C28.3631 20.3094 28.0749 20.8759 26.6831 20.8759C25.2913 20.8759 24.898 20.3094 24.898 18.8836C24.898 17.4577 25.2913 16.6807 26.6831 16.6807C28.0749 16.6807 28.3631 17.4577 28.3631 18.8835Z" fill="black"/>
<path d="M27.8364 17.9106C27.8364 18.5616 27.7044 18.8203 27.0675 18.8203C26.4305 18.8203 26.2505 18.5616 26.2505 17.9106C26.2505 17.2596 26.4305 16.9048 27.0675 16.9048C27.7044 16.9048 27.8364 17.2596 27.8364 17.9106Z" fill="white"/>
<path d="M22.2907 20.5763C22.3757 20.5763 22.4457 20.6455 22.4337 20.7296C22.3876 21.0543 22.1959 21.3591 21.8872 21.5921C21.5303 21.8615 21.0463 22.0129 20.5415 22.0129C20.0368 22.0129 19.5528 21.8615 19.1959 21.5921C18.8872 21.3591 18.6955 21.0543 18.6494 20.7296C18.6374 20.6455 18.7074 20.5763 18.7924 20.5763V20.5763C18.8774 20.5763 18.945 20.6456 18.9592 20.7294C19.0039 20.9923 19.1626 21.2384 19.4135 21.4278C19.7127 21.6537 20.1184 21.7806 20.5415 21.7806C20.9646 21.7806 21.3704 21.6537 21.6696 21.4278C21.9205 21.2384 22.0792 20.9923 22.1239 20.7294C22.1381 20.6456 22.2057 20.5763 22.2907 20.5763V20.5763Z" fill="black"/>
<g filter="url(#filter1_i_88_200)">
<path d="M41 8.08625C41 11.6903 31.504 11.491 20.1822 11.491C8.86033 11.491 0 11.6903 0 8.08625C0 4.48218 8.86033 0 20.1822 0C31.504 0 41 4.48218 41 8.08625Z" fill="#CFAF80"/>
<path d="M21.6122 0.141726C21.6122 1.94376 21.043 3.40466 20.3409 3.40466C19.6388 3.40466 19.0696 1.94382 19.0696 0.141789C19.0696 -0.000138539 19.0696 5.25904e-10 20.3409 5.2596e-10C21.6122 5.26016e-10 21.6122 -6.29109e-05 21.6122 0.141726Z" fill="#FBE0AB"/>
<path d="M27.4885 0.744252C27.1713 2.52389 26.352 3.88678 25.6586 3.78828C24.9652 3.68977 24.6602 2.16723 24.9775 0.387585C25.0025 0.247422 25.0024 0.247559 26.258 0.425923C27.5135 0.604288 27.5135 0.604226 27.4885 0.744252Z" fill="#FBE0AB"/>
<path d="M15.4792 0.379116C15.8118 2.15653 15.52 3.68118 14.8275 3.78444C14.1349 3.88771 13.3039 2.53054 12.9714 0.753132C12.9452 0.613145 12.9452 0.613281 14.1991 0.426304C15.4531 0.239327 15.4531 0.239265 15.4792 0.379116Z" fill="#FBE0AB"/>
</g>
<path d="M40.2474 11.4931C40.2474 12.551 31.4061 11.4931 20.4997 11.4931C9.59336 11.4931 0.752014 12.551 0.752014 11.4931C0.752014 10.4352 9.59336 9.57764 20.4997 9.57764C31.4061 9.57764 40.2474 10.4352 40.2474 11.4931Z" fill="#AC936D"/>
<defs>
<filter id="filter0_i_88_200" x="0" y="-0.168945" width="40.7819" height="37.1689" filterUnits="userSpaceOnUse" color-interpolation-filters="sRGB">
<feFlood flood-opacity="0" result="BackgroundImageFix"/>
<feBlend mode="normal" in="SourceGraphic" in2="BackgroundImageFix" result="shape"/>
<feColorMatrix in="SourceAlpha" type="matrix" values="0 0 0 0 0 0 0 0 0 0 0 0 0 0 0 0 0 0 127 0" result="hardAlpha"/>
<feOffset dy="-5"/>
<feGaussianBlur stdDeviation="2"/>
<feComposite in2="hardAlpha" operator="arithmetic" k2="-1" k3="1"/>
<feColorMatrix type="matrix" values="0 0 0 0 0.799546 0 0 0 0 0.805436 0 0 0 0 0.764207 0 0 0 0.25 0"/>
<feBlend mode="normal" in2="shape" result="effect1_innerShadow_88_200"/>
</filter>
<filter id="filter1_i_88_200" x="0" y="-4" width="41" height="15.4932" filterUnits="userSpaceOnUse" color-interpolation-filters="sRGB">
<feFlood flood-opacity="0" result="BackgroundImageFix"/>
<feBlend mode="normal" in="SourceGraphic" in2="BackgroundImageFix" result="shape"/>
<feColorMatrix in="SourceAlpha" type="matrix" values="0 0 0 0 0 0 0 0 0 0 0 0 0 0 0 0 0 0 127 0" result="hardAlpha"/>
<feOffset dy="-8"/>
<feGaussianBlur stdDeviation="2"/>
<feComposite in2="hardAlpha" operator="arithmetic" k2="-1" k3="1"/>
<feColorMatrix type="matrix" values="0 0 0 0 0.67451 0 0 0 0 0.576471 0 0 0 0 0.427451 0 0 0 0.25 0"/>
<feBlend mode="normal" in2="shape" result="effect1_innerShadow_88_200"/>
</filter>
</defs>
</svg>
